.
 
http://www.scenetime.com    -   SceneTime [ We been having it ] !!!


How come you press harder on a remote control when you know the battery is dead? so you better seed to get speed ;)

        Seed back for speed


...................................NFO:.................................................

                            
                       
            
              
                  
                 
                
                
             
          
                 


                  NOTES                   
                                                                             
                  NOTES                   
                                                                             
                                                                             
 Death And Cremation 2010 DVDRIP UnKnOwN                                     
 Encoded By .......:UnKnOwN                                                  
 Runtime ..........:                                                         
 IMDb URL .........:http://www.imdb.com/title/tt1484954/                     
 Language .........:English                                                  
 File Size ........:700                                                      
 Release Date ......... 2010                                                 
 Source       ......... DVD                                                  
 File Type    ......... Single AVI                                           
 PS3 Compatible ....... Why dont You complain in comments and let me know(:  
 Genre        .........Thriller                                              
                                                                             
                                                                             
 Video                                                                       
 ID                               : 0                                        
 Format                           : MPEG-4 Visual                            
 Format profile                   : Advanced Simple@L5                       
 Format settings, BVOP            : Yes                                      
 Format settings, QPel            : No                                       
 Format settings, GMC             : No warppoints                            
 Format settings, Matrix          : Custom                                   
 Codec ID                         : XVID                                     
 Codec ID/Hint                    : XviD                                     
 Duration                         : 1h 26mn                                  
 Bit rate                         : 1 146 Kbps                               
 Width                            : 640 pixels                               
 Height                           : 274 pixels                               
 Display aspect ratio             : 2.40:1                                   
 Frame rate                       : 25.000 fps                               
 Color space                      : YUV                                      
 Chroma subsampling               : 4:2:0                                    
 Bit depth                        : 8 bits                                   
 Scan type                        : Progressive                              
 Bits/(Pixel*Frame)               : 0.253                                    
 Stream size                      : 44.7 MiB (4%)                            
 Writing library                  : XviD 1.2.1 (UTC 2008-12-04)              
                                                                             
 Audio                                                                       
 ID                               : 1                                        
 Format                           : MPEG Audio                               
 Codec ID                         : 55                                       
 Codec ID/Hint                    : MP3                                      
 Duration                         : 1h 26mn                                  
 Bit rate                         : 133 Kbps                                 
 Channel(s)                       : 2 channels                               
 Sampling rate                    : 44.1 KHz                                 
 Stream size                      : 107 MiB (9%)                             
 Alignment                        : Aligned on interleaves                   
                                                                             
                                                                             
                                                                             
                                 SYSPNOSIS                                   
                                                                             0
0   In a typical American suburb filled with middle class morals, a lonely    0
0 59-year-old, Stan, contributes to society by offering cremation services    0
0 from his basement..                                                         0
0                                                                             0
                                                                             
                                                                             
                                                                             
                                                                             
                                                                             



                                                                         
                               LOOKING FOR                               
                                                                         
                                Nothing                                  
                                                                         
                                                                         
                                                                         


               GREETZ & RESPECT              
  
                          NOBODY YET WILL LET YOU KNOW                        
                                                                              
                          MORE GOODIES COMING REAL SOON